<mxfile host="app.diagrams.net" agent="Mozilla/5.0 (Windows NT 10.0; Win64; x64) AppleWebKit/537.36 (KHTML, like Gecko) Chrome/129.0.0.0 Safari/537.36" version="24.7.17">
  <diagram name="페이지-1" id="8WGVhJYfuTn8DZfaYAtl">
    <mxGraphModel dx="1562" dy="853" grid="1" gridSize="10" guides="1" tooltips="1" connect="1" arrows="1" fold="1" page="1" pageScale="1" pageWidth="827" pageHeight="1169" math="0" shadow="0">
      <root>
        <mxCell id="0" />
        <mxCell id="1" parent="0" />
        <mxCell id="-7uy2Xp6dNYXPbMtSDcJ-7" value="" style="rounded=0;whiteSpace=wrap;html=1;" parent="1" vertex="1">
          <mxGeometry x="20" y="20" width="790" height="490" as="geometry" />
        </mxCell>
        <mxCell id="-7uy2Xp6dNYXPbMtSDcJ-8" value="&lt;font style=&quot;font-size: 15px;&quot;&gt;&amp;lt; Insta-Lens &amp;gt;&lt;/font&gt;" style="text;html=1;align=center;verticalAlign=middle;whiteSpace=wrap;rounded=0;" parent="1" vertex="1">
          <mxGeometry x="349" y="30" width="130" height="30" as="geometry" />
        </mxCell>
        <mxCell id="-7uy2Xp6dNYXPbMtSDcJ-9" value="User Account의 Instagram 인포그래픽 어쩌구~" style="text;html=1;align=center;verticalAlign=middle;whiteSpace=wrap;rounded=0;" parent="1" vertex="1">
          <mxGeometry x="30" y="60" width="260" height="30" as="geometry" />
        </mxCell>
        <mxCell id="-7uy2Xp6dNYXPbMtSDcJ-11" value="Liked_Users" style="swimlane;fontStyle=0;childLayout=stackLayout;horizontal=1;startSize=30;horizontalStack=0;resizeParent=1;resizeParentMax=0;resizeLast=0;collapsible=1;marginBottom=0;whiteSpace=wrap;html=1;" parent="1" vertex="1">
          <mxGeometry x="220" y="550" width="140" height="90" as="geometry" />
        </mxCell>
        <mxCell id="-7uy2Xp6dNYXPbMtSDcJ-12" value="User account name" style="text;strokeColor=none;fillColor=none;align=left;verticalAlign=middle;spacingLeft=4;spacingRight=4;overflow=hidden;points=[[0,0.5],[1,0.5]];portConstraint=eastwest;rotatable=0;whiteSpace=wrap;html=1;" parent="-7uy2Xp6dNYXPbMtSDcJ-11" vertex="1">
          <mxGeometry y="30" width="140" height="30" as="geometry" />
        </mxCell>
        <mxCell id="-7uy2Xp6dNYXPbMtSDcJ-13" value="count" style="text;strokeColor=none;fillColor=none;align=left;verticalAlign=middle;spacingLeft=4;spacingRight=4;overflow=hidden;points=[[0,0.5],[1,0.5]];portConstraint=eastwest;rotatable=0;whiteSpace=wrap;html=1;" parent="-7uy2Xp6dNYXPbMtSDcJ-11" vertex="1">
          <mxGeometry y="60" width="140" height="30" as="geometry" />
        </mxCell>
        <mxCell id="-7uy2Xp6dNYXPbMtSDcJ-15" value="Dict" style="swimlane;fontStyle=0;childLayout=stackLayout;horizontal=1;startSize=30;horizontalStack=0;resizeParent=1;resizeParentMax=0;resizeLast=0;collapsible=1;marginBottom=0;whiteSpace=wrap;html=1;" parent="1" vertex="1">
          <mxGeometry x="670" y="550" width="140" height="90" as="geometry" />
        </mxCell>
        <mxCell id="-7uy2Xp6dNYXPbMtSDcJ-16" value="Key" style="text;strokeColor=none;fillColor=none;align=left;verticalAlign=middle;spacingLeft=4;spacingRight=4;overflow=hidden;points=[[0,0.5],[1,0.5]];portConstraint=eastwest;rotatable=0;whiteSpace=wrap;html=1;" parent="-7uy2Xp6dNYXPbMtSDcJ-15" vertex="1">
          <mxGeometry y="30" width="140" height="30" as="geometry" />
        </mxCell>
        <mxCell id="-7uy2Xp6dNYXPbMtSDcJ-17" value="Value" style="text;strokeColor=none;fillColor=none;align=left;verticalAlign=middle;spacingLeft=4;spacingRight=4;overflow=hidden;points=[[0,0.5],[1,0.5]];portConstraint=eastwest;rotatable=0;whiteSpace=wrap;html=1;" parent="-7uy2Xp6dNYXPbMtSDcJ-15" vertex="1">
          <mxGeometry y="60" width="140" height="30" as="geometry" />
        </mxCell>
        <mxCell id="-7uy2Xp6dNYXPbMtSDcJ-19" value="Set" style="ellipse;whiteSpace=wrap;html=1;" parent="1" vertex="1">
          <mxGeometry x="670" y="660" width="140" height="80" as="geometry" />
        </mxCell>
        <mxCell id="-7uy2Xp6dNYXPbMtSDcJ-20" value="List" style="rounded=0;whiteSpace=wrap;html=1;" parent="1" vertex="1">
          <mxGeometry x="670" y="760" width="140" height="60" as="geometry" />
        </mxCell>
        <mxCell id="-7uy2Xp6dNYXPbMtSDcJ-21" value="Follower" style="ellipse;whiteSpace=wrap;html=1;" parent="1" vertex="1">
          <mxGeometry x="40" y="540" width="140" height="80" as="geometry" />
        </mxCell>
        <mxCell id="-7uy2Xp6dNYXPbMtSDcJ-22" value="Non-Follower" style="ellipse;whiteSpace=wrap;html=1;" parent="1" vertex="1">
          <mxGeometry x="40" y="640" width="140" height="80" as="geometry" />
        </mxCell>
        <mxCell id="-7uy2Xp6dNYXPbMtSDcJ-23" value="Following" style="ellipse;whiteSpace=wrap;html=1;" parent="1" vertex="1">
          <mxGeometry x="40" y="745" width="140" height="80" as="geometry" />
        </mxCell>
        <mxCell id="-7uy2Xp6dNYXPbMtSDcJ-24" value="1. ID (pk, #)&lt;div&gt;2. insta_name (Char)&lt;/div&gt;&lt;div&gt;3. is_following (내가 팔로우 하는가, boolean)&lt;/div&gt;&lt;div&gt;4. is_follower (나를 팔로우 하는가, boolean)&lt;/div&gt;&lt;div&gt;5. like_count (나의 게시글, 릴스 좋아요한 횟수, Integer)&lt;/div&gt;" style="shape=cylinder;whiteSpace=wrap;html=1;boundedLbl=1;backgroundOutline=1;" parent="1" vertex="1">
          <mxGeometry x="440" y="540" width="150" height="250" as="geometry" />
        </mxCell>
        <mxCell id="-7uy2Xp6dNYXPbMtSDcJ-25" value="User&amp;nbsp;" style="text;html=1;align=center;verticalAlign=middle;whiteSpace=wrap;rounded=0;" parent="1" vertex="1">
          <mxGeometry x="485" y="560" width="60" height="30" as="geometry" />
        </mxCell>
        <mxCell id="-7uy2Xp6dNYXPbMtSDcJ-26" style="edgeStyle=orthogonalEdgeStyle;rounded=0;orthogonalLoop=1;jettySize=auto;html=1;entryX=0.003;entryY=0.371;entryDx=0;entryDy=0;entryPerimeter=0;" parent="1" source="-7uy2Xp6dNYXPbMtSDcJ-12" target="-7uy2Xp6dNYXPbMtSDcJ-24" edge="1">
          <mxGeometry relative="1" as="geometry">
            <Array as="points">
              <mxPoint x="420" y="595" />
              <mxPoint x="420" y="633" />
            </Array>
          </mxGeometry>
        </mxCell>
        <mxCell id="-7uy2Xp6dNYXPbMtSDcJ-27" style="edgeStyle=orthogonalEdgeStyle;rounded=0;orthogonalLoop=1;jettySize=auto;html=1;entryX=0.019;entryY=0.609;entryDx=0;entryDy=0;entryPerimeter=0;" parent="1" source="-7uy2Xp6dNYXPbMtSDcJ-21" target="-7uy2Xp6dNYXPbMtSDcJ-24" edge="1">
          <mxGeometry relative="1" as="geometry">
            <Array as="points">
              <mxPoint x="200" y="580" />
              <mxPoint x="200" y="692" />
            </Array>
          </mxGeometry>
        </mxCell>
        <mxCell id="-7uy2Xp6dNYXPbMtSDcJ-30" style="edgeStyle=orthogonalEdgeStyle;rounded=0;orthogonalLoop=1;jettySize=auto;html=1;entryX=0.003;entryY=0.609;entryDx=0;entryDy=0;entryPerimeter=0;" parent="1" source="-7uy2Xp6dNYXPbMtSDcJ-23" target="-7uy2Xp6dNYXPbMtSDcJ-24" edge="1">
          <mxGeometry relative="1" as="geometry">
            <Array as="points">
              <mxPoint x="200" y="785" />
              <mxPoint x="200" y="692" />
            </Array>
          </mxGeometry>
        </mxCell>
        <mxCell id="-7uy2Xp6dNYXPbMtSDcJ-31" style="edgeStyle=orthogonalEdgeStyle;rounded=0;orthogonalLoop=1;jettySize=auto;html=1;" parent="1" source="-7uy2Xp6dNYXPbMtSDcJ-13" edge="1">
          <mxGeometry relative="1" as="geometry">
            <mxPoint x="440" y="730" as="targetPoint" />
            <Array as="points">
              <mxPoint x="400" y="625" />
              <mxPoint x="400" y="730" />
            </Array>
          </mxGeometry>
        </mxCell>
        <mxCell id="-7uy2Xp6dNYXPbMtSDcJ-32" value="&lt;ul style=&quot;font-size: 22px;&quot;&gt;&lt;div style=&quot;text-align: left;&quot;&gt;&lt;br&gt;&lt;/div&gt;&lt;li style=&quot;text-align: left;&quot;&gt;팔로워, 팔로잉 밴다이어그램&lt;/li&gt;&lt;div style=&quot;text-align: left;&quot;&gt;&lt;br&gt;&lt;/div&gt;&lt;li style=&quot;text-align: left;&quot;&gt;언팔로워 하고싶어지는 계정 리스트&lt;/li&gt;&lt;div style=&quot;text-align: left;&quot;&gt;&lt;br&gt;&lt;/div&gt;&lt;li style=&quot;text-align: left;&quot;&gt;팔로잉 중에 좋아요 눌러주는 사람, 안눌러주는 사람 파이 차트&lt;/li&gt;&lt;li style=&quot;text-align: left;&quot;&gt;팔로워 중에 좋아요 눌러주는 사람, 안눌러주는 사람 파이 차트&lt;/li&gt;&lt;div style=&quot;text-align: left;&quot;&gt;&lt;br&gt;&lt;/div&gt;&lt;li style=&quot;text-align: left;&quot;&gt;좋아요 해주는 사람 횟수에 따른 파이 차트&lt;/li&gt;&lt;/ul&gt;&lt;div&gt;&lt;br&gt;&lt;/div&gt;" style="text;html=1;align=center;verticalAlign=middle;whiteSpace=wrap;rounded=0;" parent="1" vertex="1">
          <mxGeometry x="30" y="850" width="590" height="290" as="geometry" />
        </mxCell>
        <mxCell id="-7uy2Xp6dNYXPbMtSDcJ-33" value="" style="ellipse;whiteSpace=wrap;html=1;fillColor=none;" parent="1" vertex="1">
          <mxGeometry x="40" y="110" width="150" height="140" as="geometry" />
        </mxCell>
        <mxCell id="-7uy2Xp6dNYXPbMtSDcJ-34" value="" style="ellipse;whiteSpace=wrap;html=1;fillColor=none;" parent="1" vertex="1">
          <mxGeometry x="120" y="180" width="140" height="140" as="geometry" />
        </mxCell>
        <mxCell id="-7uy2Xp6dNYXPbMtSDcJ-37" value="날 감히 팔로우 안한 계정 list&lt;div&gt;&lt;br&gt;&lt;/div&gt;&lt;div style=&quot;text-align: left;&quot;&gt;1. ---&lt;/div&gt;&lt;div style=&quot;text-align: left;&quot;&gt;2. ---&lt;/div&gt;&lt;div style=&quot;text-align: left;&quot;&gt;3. ---&lt;/div&gt;&lt;div style=&quot;text-align: left;&quot;&gt;4. ---&lt;/div&gt;&lt;div style=&quot;text-align: left;&quot;&gt;5. ---&lt;/div&gt;&lt;div&gt;&lt;div style=&quot;text-align: left;&quot;&gt;&lt;span style=&quot;background-color: initial;&quot;&gt;...&lt;/span&gt;&lt;/div&gt;&lt;div style=&quot;text-align: left;&quot;&gt;&lt;br&gt;&lt;/div&gt;&lt;/div&gt;" style="text;html=1;align=center;verticalAlign=middle;whiteSpace=wrap;rounded=0;" parent="1" vertex="1">
          <mxGeometry x="40" y="330" width="180" height="170" as="geometry" />
        </mxCell>
        <mxCell id="-7uy2Xp6dNYXPbMtSDcJ-38" value="" style="verticalLabelPosition=bottom;verticalAlign=top;html=1;shape=mxgraph.basic.pie;fillColor=#dae8fc;strokeColor=#6c8ebf;startAngle=0.2;endAngle=0.987294663166942;" parent="1" vertex="1">
          <mxGeometry x="349" y="120" width="150" height="150" as="geometry" />
        </mxCell>
        <mxCell id="-7uy2Xp6dNYXPbMtSDcJ-42" value="" style="verticalLabelPosition=bottom;verticalAlign=top;html=1;shape=mxgraph.basic.pie;fillColor=#f8cecc;strokeColor=#b85450;startAngle=0.2;endAngle=0.987294663166942;" parent="1" vertex="1">
          <mxGeometry x="349" y="310" width="150" height="150" as="geometry" />
        </mxCell>
        <mxCell id="-7uy2Xp6dNYXPbMtSDcJ-43" value="" style="verticalLabelPosition=bottom;verticalAlign=top;html=1;shape=mxgraph.basic.pie;fillColor=#ffe6cc;strokeColor=#d79b00;startAngle=0.2;endAngle=0.987294663166942;" parent="1" vertex="1">
          <mxGeometry x="600" y="120" width="150" height="150" as="geometry" />
        </mxCell>
        <mxCell id="-7uy2Xp6dNYXPbMtSDcJ-44" value="" style="verticalLabelPosition=bottom;verticalAlign=top;html=1;shape=mxgraph.basic.pie;fillColor=#fff2cc;strokeColor=#d6b656;startAngle=0.2;endAngle=0.987294663166942;" parent="1" vertex="1">
          <mxGeometry x="600" y="310" width="150" height="150" as="geometry" />
        </mxCell>
      </root>
    </mxGraphModel>
  </diagram>
</mxfile>
